<svg width="435" height="420" viewBox="0 0 435 420" fill="none" xmlns="http://www.w3.org/2000/svg">
<g clip-path="url(#clip0_6_9)">
<rect width="435" height="420" fill="#4831D4"/>
<g clip-path="url(#clip1_6_9)">
<path d="M221.163 401.083C274.78 401.083 318.246 319.023 318.246 217.795C318.246 116.568 274.78 34.5075 221.163 34.5075C167.545 34.5075 124.079 116.568 124.079 217.795C124.079 319.023 167.545 401.083 221.163 401.083Z" stroke="#F66988" stroke-width="0.98" stroke-miterlimit="10"/>
<path d="M221.163 304.638C334.327 304.638 426.065 265.757 426.065 217.796C426.065 169.834 334.327 130.953 221.163 130.953C107.998 130.953 16.2603 169.834 16.2603 217.796C16.2603 265.757 107.998 304.638 221.163 304.638Z" stroke="#F66988" stroke-width="0.98" stroke-miterlimit="10"/>
<path d="M396.045 374.268C421.563 351.441 363.936 262.883 267.33 176.468C170.725 90.0532 71.7237 38.5046 46.2052 61.3312C20.6868 84.1579 78.3143 172.716 174.92 259.131C271.525 345.546 370.526 397.094 396.045 374.268Z" stroke="#F66988" stroke-width="0.98" stroke-miterlimit="10"/>
<path d="M267.33 259.131C363.936 172.716 421.563 84.1579 396.045 61.3313C370.526 38.5046 271.525 90.0532 174.92 176.468C78.3143 262.883 20.6868 351.441 46.2052 374.268C71.7237 397.094 170.725 345.546 267.33 259.131Z" stroke="#F66988" stroke-width="0.98" stroke-miterlimit="10"/>
<path d="M218.225 258.8C246.196 258.8 268.871 236.907 268.871 209.9C268.871 182.893 246.196 161 218.225 161C190.254 161 167.579 182.893 167.579 209.9C167.579 236.907 190.254 258.8 218.225 258.8Z" fill="white"/>
<path d="M218.225 389.3C320.843 389.3 404.032 308.98 404.032 209.9C404.032 110.82 320.843 30.5 218.225 30.5C115.607 30.5 32.4178 110.82 32.4178 209.9C32.4178 308.98 115.607 389.3 218.225 389.3Z" stroke="#F66988" stroke-width="0.98" stroke-miterlimit="10"/>
<path d="M296.732 310.1C310.689 310.1 322.004 299.176 322.004 285.7C322.004 272.224 310.689 261.3 296.732 261.3C282.775 261.3 271.461 272.224 271.461 285.7C271.461 299.176 282.775 310.1 296.732 310.1Z" fill="white"/>
<path d="M386.321 88C400.622 88 412.214 77.4787 412.214 64.5C412.214 51.5213 400.622 41 386.321 41C372.021 41 360.429 51.5213 360.429 64.5C360.429 77.4787 372.021 88 386.321 88Z" fill="white"/>
<path d="M294.246 161C308.203 161 319.518 150.076 319.518 136.6C319.518 123.124 308.203 112.2 294.246 112.2C280.289 112.2 268.975 123.124 268.975 136.6C268.975 150.076 280.289 161 294.246 161Z" fill="white"/>
<path d="M218.225 415.7C235.5 415.7 249.504 402.179 249.504 385.5C249.504 368.821 235.5 355.3 218.225 355.3C200.95 355.3 186.946 368.821 186.946 385.5C186.946 402.179 200.95 415.7 218.225 415.7Z" fill="white"/>
<path d="M62.9714 390.1C80.2461 390.1 94.25 376.579 94.25 359.9C94.25 343.221 80.2461 329.7 62.9714 329.7C45.6968 329.7 31.6929 343.221 31.6929 359.9C31.6929 376.579 45.6968 390.1 62.9714 390.1Z" fill="white"/>
<path d="M218.432 64.7C235.707 64.7 249.711 51.179 249.711 34.5C249.711 17.821 235.707 4.29999 218.432 4.29999C201.157 4.29999 187.154 17.821 187.154 34.5C187.154 51.179 201.157 64.7 218.432 64.7Z" fill="white"/>
<path d="M206.004 383.6H212.321C212.425 382 213.046 380.5 214.186 379.4L210.561 375.9C209.836 376.4 209.007 376.8 207.971 376.8C207.039 376.8 206.107 376.5 205.486 376C204.45 377.6 203.725 379.4 203.414 381.3C204.657 381.3 205.796 382.3 206.004 383.6Z" fill="#19ADE5"/>
<path d="M211.182 375.1L214.807 378.6C216.154 377.5 217.811 376.8 219.675 376.8C221.539 376.8 223.3 377.5 224.543 378.6L228.893 374.4C228.582 373.9 228.375 373.4 228.375 372.7C228.375 371.9 228.686 371.2 229.204 370.7C226.511 368.9 223.196 367.8 219.675 367.8C216.568 367.8 213.668 368.6 211.182 370.1C211.7 370.8 212.011 371.6 212.011 372.5C212.011 373.6 211.7 374.4 211.182 375.1Z" fill="#19ADE5"/>
<path d="M219.157 397.3V391.2C215.429 391 212.529 388.1 212.218 384.5H205.9C205.693 385.8 204.554 386.8 203.207 386.9C204.45 393.5 209.836 398.7 216.671 399.9C216.879 398.6 217.914 397.5 219.157 397.3Z" fill="#19ADE5"/>
<path d="M236.35 384.1C236.35 380.7 235.211 377.5 233.346 374.9C232.829 375.4 232.104 375.7 231.275 375.7C230.654 375.7 230.032 375.5 229.514 375.2L225.164 379.4C226.304 380.7 227.029 382.3 227.029 384.1C227.029 387.9 223.921 391 220.089 391.3V397.4C221.436 397.6 222.471 398.7 222.575 400C230.446 398.5 236.35 392 236.35 384.1Z" fill="#19ADE5"/>
<path d="M228.893 374.5L224.543 378.7C224.75 378.9 225.061 379.1 225.268 379.4L229.618 375.2C229.307 375 229.1 374.8 228.893 374.5Z" fill="#023279"/>
<path d="M214.807 378.6L211.182 375.1C210.975 375.4 210.768 375.6 210.457 375.8L214.082 379.3C214.289 379.1 214.6 378.9 214.807 378.6Z" fill="#023279"/>
<path d="M212.321 383.6H206.004C206.004 383.8 206.004 383.9 206.004 384.1C206.004 384.3 206.004 384.4 206.004 384.6H212.321C212.321 384.4 212.321 384.3 212.321 384.1C212.218 383.9 212.321 383.7 212.321 383.6Z" fill="#023279"/>
<path d="M219.157 391.2V397.3C219.364 397.3 219.468 397.3 219.675 397.3C219.882 397.3 219.986 397.3 220.193 397.3V391.2C219.986 391.2 219.882 391.2 219.675 391.2C219.571 391.2 219.364 391.2 219.157 391.2Z" fill="#023279"/>
<path d="M228.893 374.5L230.239 373.2L230.964 373.9L229.618 375.2C230.136 375.5 230.654 375.7 231.379 375.7C232.207 375.7 232.932 375.4 233.45 374.9C232.311 373.3 230.861 371.9 229.204 370.8C228.686 371.3 228.375 372 228.375 372.8C228.375 373.4 228.582 374 228.893 374.5Z" fill="#F20B4B"/>
<path d="M230.239 373.2L228.893 374.5C229.1 374.8 229.307 375 229.618 375.2L230.964 373.9L230.239 373.2Z" fill="#19ADE5"/>
<path d="M231.379 369.9C230.55 369.9 229.721 370.2 229.204 370.8C228.686 371.3 228.375 372 228.375 372.8C228.375 373.4 228.582 374 228.893 374.5C229.1 374.8 229.307 375 229.618 375.2C230.136 375.5 230.654 375.7 231.379 375.7C232.207 375.7 232.932 375.4 233.45 374.9C233.968 374.4 234.382 373.6 234.382 372.8C234.382 371.2 233.036 369.9 231.379 369.9Z" fill="#F20B4B"/>
<path d="M220.193 397.3V400.1C221.021 400.1 221.85 400 222.679 399.9C222.575 398.6 221.539 397.5 220.193 397.3Z" fill="#F20B4B"/>
<path d="M219.157 397.3C217.811 397.5 216.775 398.6 216.671 399.9C217.5 400 218.329 400.1 219.157 400.1V397.3Z" fill="#F20B4B"/>
<path d="M219.157 400.1V400.4H220.193V400.1C219.986 400.1 219.882 400.1 219.675 400.1C219.468 400.1 219.364 400.1 219.157 400.1Z" fill="#19ADE5"/>
<path d="M219.157 400.1V400.4H220.193V400.1C219.986 400.1 219.882 400.1 219.675 400.1C219.468 400.1 219.364 400.1 219.157 400.1Z" fill="#9C0333"/>
<path d="M219.157 397.3V400.1C219.364 400.1 219.468 400.1 219.675 400.1C219.882 400.1 219.986 400.1 220.193 400.1V397.3C219.986 397.3 219.882 397.3 219.675 397.3C219.571 397.3 219.364 397.3 219.157 397.3Z" fill="#19ADE5"/>
<path d="M222.679 399.9C222.575 398.6 221.539 397.5 220.193 397.3C219.986 397.3 219.882 397.3 219.675 397.3C219.468 397.3 219.364 397.3 219.157 397.3C217.811 397.5 216.775 398.6 216.671 399.9C216.671 400 216.671 400.1 216.671 400.2C216.671 401.8 218.018 403.1 219.675 403.1C221.332 403.1 222.679 401.8 222.679 400.2C222.679 400.1 222.679 400 222.679 399.9Z" fill="#F20B4B"/>
<path d="M211.182 375.1C211.7 374.4 212.114 373.6 212.114 372.6C212.114 371.7 211.804 370.8 211.286 370.2C210.25 370.8 209.318 371.5 208.386 372.3L211.182 375.1Z" fill="#F20B4B"/>
<path d="M210.457 375.8L207.557 373C206.729 373.9 206.004 374.8 205.382 375.8C206.107 376.3 206.936 376.6 207.868 376.6C208.904 376.7 209.732 376.3 210.457 375.8Z" fill="#F20B4B"/>
<path d="M208.282 372.3L205.382 369.5C205.071 369.7 204.864 369.9 204.657 370.2L207.557 373C207.764 372.8 208.075 372.6 208.282 372.3Z" fill="#19ADE5"/>
<path d="M211.182 375.1L208.282 372.3C208.075 372.5 207.764 372.8 207.557 373L210.457 375.8C210.664 375.6 210.975 375.4 211.182 375.1Z" fill="#19ADE5"/>
<path d="M206.004 384.5H204.864V383.5H206.004C205.796 382.2 204.657 381.2 203.311 381.1C203.104 382 203 383 203 384C203 385 203.104 385.9 203.311 386.9C204.657 386.8 205.796 385.8 206.004 384.5Z" fill="#F20B4B"/>
<path d="M206.004 383.6H204.864V384.6H206.004C206.004 384.4 206.004 384.3 206.004 384.1C206.004 383.9 206.004 383.7 206.004 383.6Z" fill="#19ADE5"/>
<path d="M206.004 383.6C205.796 382.3 204.657 381.3 203.311 381.2C203.207 381.2 203.104 381.2 203 381.2C201.343 381.2 199.996 382.5 199.996 384.1C199.996 385.7 201.343 387 203 387C203.104 387 203.207 387 203.311 387C204.657 386.9 205.796 385.9 206.004 384.6C206.004 384.4 206.004 384.3 206.004 384.1C206.004 383.9 206.004 383.7 206.004 383.6Z" fill="#F20B4B"/>
<path d="M214.082 379.3C213.046 380.4 212.425 381.9 212.218 383.5H218.432L214.082 379.3Z" fill="#F20B4B"/>
<path d="M220.193 391.2C224.025 390.9 227.132 387.8 227.132 384C227.132 382.2 226.407 380.5 225.268 379.3L220.193 384.2V391.2Z" fill="#F20B4B"/>
<path d="M212.321 384.5C212.529 388.1 215.532 390.9 219.261 391.2V384.5H212.321Z" fill="#F20B4B"/>
<path d="M224.646 378.6C223.3 377.5 221.643 376.8 219.779 376.8C217.914 376.8 216.154 377.5 214.911 378.6L219.779 383.3L224.646 378.6Z" fill="#F20B4B"/>
<path d="M224.646 378.6L219.779 383.3L220.089 383.6L219.779 383.9H220.296V384.1L225.371 379.2C225.061 379.1 224.854 378.9 224.646 378.6Z" fill="#19ADE5"/>
<path d="M219.468 383.6L219.675 383.4L214.807 378.7C214.6 378.9 214.289 379.1 214.082 379.4L218.432 383.6H219.468Z" fill="#19ADE5"/>
<path d="M219.675 383.6V384.1L220.089 383.7L219.675 383.4L219.468 383.6H219.675Z" fill="#19ADE5"/>
<path d="M219.675 383.6V384.1L220.089 383.7L219.675 383.4L219.468 383.6H219.675Z" fill="#9C0333"/>
<path d="M219.157 384.3L218.432 383.6H212.218C212.218 383.8 212.218 383.9 212.218 384.1C212.218 384.3 212.218 384.4 212.218 384.6H219.157V384.3Z" fill="#19ADE5"/>
<path d="M219.468 383.6H218.536L219.157 384.3V384.1H219.675L219.364 383.7L219.468 383.6Z" fill="#19ADE5"/>
<path d="M219.468 383.6H218.536L219.157 384.3V384.1H219.675L219.364 383.7L219.468 383.6Z" fill="#9C0333"/>
<path d="M219.468 383.6L219.364 383.7L219.675 384.1V383.6H219.468Z" fill="#19ADE5"/>
<path d="M219.468 383.6L219.364 383.7L219.675 384.1V383.6H219.468Z" fill="#9C0333"/>
<path d="M220.089 384.4L219.779 384.1V384.6H219.261V391.3C219.468 391.3 219.571 391.3 219.779 391.3C219.986 391.3 220.089 391.3 220.296 391.3V384.3L220.089 384.4Z" fill="#19ADE5"/>
<path d="M225.268 379.3C225.061 379.1 224.854 378.8 224.543 378.6C223.196 377.5 221.539 376.8 219.675 376.8C217.811 376.8 216.05 377.5 214.807 378.6C214.6 378.8 214.289 379 214.082 379.3C213.046 380.4 212.425 381.9 212.218 383.5C212.218 383.7 212.218 383.8 212.218 384C212.218 384.2 212.218 384.3 212.218 384.5C212.425 388.1 215.429 390.9 219.157 391.2C219.364 391.2 219.468 391.2 219.675 391.2C219.882 391.2 219.986 391.2 220.193 391.2C224.025 390.9 227.132 387.8 227.132 384C227.132 382.2 226.511 380.6 225.268 379.3Z" fill="#F20B4B"/>
<path d="M33.9714 238.1C50.1593 238.1 63.2821 225.43 63.2821 209.8C63.2821 194.17 50.1593 181.5 33.9714 181.5C17.7836 181.5 4.66071 194.17 4.66071 209.8C4.66071 225.43 17.7836 238.1 33.9714 238.1Z" fill="white"/>
<path d="M62.9714 90.4C80.2461 90.4 94.25 76.879 94.25 60.2C94.25 43.521 80.2461 30 62.9714 30C45.6968 30 31.6929 43.521 31.6929 60.2C31.6929 76.879 45.6968 90.4 62.9714 90.4Z" fill="white"/>
<path d="M401.805 244.4C420.081 244.4 434.896 230.879 434.896 214.2C434.896 197.521 420.081 184 401.805 184C383.53 184 368.714 197.521 368.714 214.2C368.714 230.879 383.53 244.4 401.805 244.4Z" fill="white"/>
<path d="M399.475 235.48C398.841 235.48 398.25 235.324 397.701 235.051L392.082 231.968C391.238 231.538 391.66 231.382 391.913 231.304C393.054 230.953 393.265 230.875 394.448 230.25C394.575 230.172 394.744 230.211 394.87 230.29L399.179 232.67C399.348 232.748 399.56 232.748 399.686 232.67L416.541 223.655C416.71 223.577 416.795 223.421 416.795 223.226V205.235C416.795 205.04 416.71 204.883 416.541 204.805L399.686 195.829C399.517 195.751 399.306 195.751 399.179 195.829L382.324 204.805C382.155 204.883 382.071 205.079 382.071 205.235V223.226C382.071 223.382 382.155 223.577 382.324 223.655L386.929 226.114C389.421 227.284 390.984 225.919 390.984 224.553V206.796C390.984 206.562 391.195 206.327 391.491 206.327H393.645C393.899 206.327 394.152 206.523 394.152 206.796V224.553C394.152 227.636 392.336 229.431 389.168 229.431C388.196 229.431 387.436 229.431 385.281 228.455L380.846 226.114C379.747 225.528 379.071 224.436 379.071 223.265V205.274C379.071 204.103 379.747 203.01 380.846 202.425L397.701 193.41C398.757 192.863 400.193 192.863 401.249 193.41L418.104 202.425C419.203 203.01 419.879 204.103 419.879 205.274V223.265C419.879 224.436 419.203 225.528 418.104 226.114L401.249 235.129C400.7 235.363 400.066 235.48 399.475 235.48ZM404.671 223.109C397.278 223.109 395.758 219.987 395.758 217.333C395.758 217.099 395.969 216.865 396.265 216.865H398.461C398.715 216.865 398.926 217.021 398.926 217.255C399.264 219.323 400.235 220.338 404.713 220.338C408.262 220.338 409.782 219.596 409.782 217.84C409.782 216.825 409.36 216.084 403.826 215.577C399.222 215.147 396.349 214.211 396.349 210.815C396.349 207.654 399.222 205.781 404.037 205.781C409.444 205.781 412.106 207.498 412.444 211.245C412.444 211.362 412.401 211.479 412.317 211.596C412.233 211.674 412.106 211.752 411.979 211.752H409.782C409.571 211.752 409.36 211.596 409.318 211.401C408.811 209.254 407.501 208.552 404.037 208.552C400.151 208.552 399.686 209.801 399.686 210.737C399.686 211.869 400.235 212.22 405.474 212.845C410.67 213.469 413.12 214.367 413.12 217.723C413.077 221.157 410.036 223.109 404.671 223.109Z" fill="#F20B4B"/>
<g clip-path="url(#clip2_6_9)">
<path d="M32.71 227.905C27.6957 227.19 23.3673 224.054 20.777 219.258C19.9149 217.661 19.2249 215.606 18.8967 213.657C18.4495 211.001 18.5968 208.068 19.3062 205.507C19.8905 203.397 20.8181 201.447 22.0931 199.649C22.6254 198.899 24.0579 197.336 24.746 196.756C27.2761 194.621 30.1606 193.367 33.2722 193.051C34.2573 192.951 36.0835 193.004 37.0226 193.16C41.9977 193.987 46.2736 197.217 48.7503 202.018C51.0959 206.565 51.3991 212.342 49.5471 217.196C47.3036 223.076 42.4098 227.121 36.5843 227.912C35.6943 228.033 33.5808 228.029 32.71 227.905ZM30.5876 221.737C30.7748 221.176 31.0531 220.729 31.4873 220.291L31.8591 219.915L31.5606 219.87C29.9216 219.62 28.1474 218.986 27.0278 218.248C25.1362 217.002 24.1792 214.68 24.1795 211.338C24.1796 209.883 24.3263 209.071 24.7592 208.13C25.056 207.484 25.167 207.3 25.5729 206.781L25.8755 206.394L25.7132 205.717C25.4335 204.55 25.4798 203.448 25.8622 202.173L26.0218 201.64H26.4384C27.3569 201.64 28.5066 202.111 29.8603 203.038L30.5276 203.495L31.2726 203.296C32.4809 202.975 33.0675 202.91 34.7561 202.914C36.4104 202.919 37.0234 202.989 38.2319 203.323L38.8603 203.496L39.4681 203.078C40.834 202.138 42.037 201.642 42.9486 201.64H43.3658L43.4972 202.035C43.955 203.412 43.996 204.863 43.6113 206.075L43.5277 206.339L43.9309 206.891C44.3894 207.519 44.8969 208.601 45.0434 209.263C45.4768 211.223 45.1977 214.09 44.405 215.821C43.8249 217.088 43.0136 217.941 41.7087 218.656C40.9141 219.092 39.2083 219.64 38.0158 219.842L37.5296 219.925L37.7876 220.148C38.109 220.425 38.4355 220.869 38.6391 221.305C38.9096 221.885 38.9719 222.411 38.9731 224.12C38.974 225.587 38.9815 225.687 39.0844 225.643C39.145 225.618 39.4495 225.5 39.7612 225.381C40.5128 225.095 41.9388 224.302 42.7201 223.737C45.6002 221.652 47.7212 218.513 48.6646 214.938C49.0683 213.409 49.2362 212.115 49.2362 210.533C49.2362 206.108 47.6788 202.131 44.7365 199.042C42.5623 196.759 39.8175 195.304 36.7393 194.802C35.7135 194.634 33.6861 194.631 32.6785 194.796C29.445 195.325 26.7067 196.821 24.4301 199.305C22.1704 201.769 20.7953 204.741 20.2983 208.235C20.1427 209.329 20.1427 211.669 20.2983 212.763C20.5843 214.773 21.247 216.855 22.1101 218.454C23.8583 221.694 26.6138 224.214 29.7076 225.402L30.3806 225.66L30.417 223.899C30.4493 222.335 30.4684 222.094 30.5876 221.737Z" fill="#00BCF2"/>
</g>
<path fill-rule="evenodd" clip-rule="evenodd" d="M71.1557 50.4026C71.792 52.6153 72.2504 54.8742 72.401 57.2155C72.5882 60.1202 72.5025 63.0043 71.9931 65.8613C71.9792 65.94 71.9498 66.0138 71.928 66.0901C71.7683 66.0906 71.6053 66.0667 71.4491 66.0958C70.1292 66.345 68.8105 66.6033 67.4918 66.8602C66.1287 67.1256 64.7636 67.3806 63.4028 67.6642C62.9207 67.7642 62.324 67.6446 62.1293 68.4462C62.1238 68.4681 62.0683 68.4719 62.0361 68.4843L62.102 63.6944C62.0794 59.8419 62.0572 55.9893 62.035 52.1368L62.6701 52.0057C63.7089 51.8013 64.7477 51.594 65.7873 51.3953C67.0279 51.1584 68.2697 50.9282 69.5111 50.6971C70.0586 50.5946 70.607 50.5008 71.1557 50.4026Z" fill="#439934"/>
<path fill-rule="evenodd" clip-rule="evenodd" d="M60.7246 82.4476C60.0545 81.7551 59.3611 81.0932 58.7188 80.365C55.2626 76.4467 52.7346 71.835 51.4897 66.275C51.1467 64.7447 50.9179 63.1897 50.8446 61.6085C50.793 60.5019 50.7185 59.3853 50.7835 58.2844C50.9568 55.3564 51.3089 52.4566 52.0233 49.6363L52.0626 49.5705C52.132 49.6815 52.2319 49.7797 52.2672 49.905C52.9646 52.3736 53.6569 54.8441 54.3455 57.3161C56.5096 65.084 58.6708 72.8539 60.8384 80.62C60.8808 80.7715 60.9906 80.8959 61.0695 81.0327L60.7246 82.4476Z" fill="#45A538"/>
<path fill-rule="evenodd" clip-rule="evenodd" d="M71.1557 50.4026C70.607 50.5008 70.0582 50.5946 69.5107 50.6961C68.2693 50.9273 67.0275 51.1575 65.7869 51.3943C64.7473 51.593 63.7085 51.8003 62.6697 52.0048L62.0346 52.1358L62.0298 51.6378C62.0088 51.2285 61.9727 50.8196 61.9687 50.4102C61.9414 47.7996 61.9243 45.189 61.8974 42.5784C61.8807 40.9442 61.8558 39.3106 61.828 37.6769C61.8109 36.6619 61.7927 35.6463 61.7546 34.6326C61.734 34.0879 61.6611 33.5461 61.6313 33.0014C61.6147 32.6883 61.6377 32.3728 61.6428 32.0583C61.9668 32.8127 62.2836 33.5728 62.6166 34.3215C63.1427 35.5052 63.9809 36.3773 64.7354 37.329C67.7182 41.0901 69.8358 45.463 71.1557 50.4026Z" fill="#46A037"/>
<path fill-rule="evenodd" clip-rule="evenodd" d="M62.0358 68.4838C62.0679 68.4714 62.1238 68.4676 62.1289 68.4457C62.3236 67.6441 62.9203 67.7637 63.4024 67.6637C64.7632 67.3806 66.1283 67.1252 67.4914 66.8597C68.8101 66.6028 70.1288 66.3445 71.4487 66.0953C71.6049 66.0658 71.7679 66.0901 71.9276 66.0896C71.681 67.1475 71.4868 68.2284 71.1739 69.2573C70.8187 70.4244 70.3889 71.5634 69.9325 72.68C69.2506 74.3494 68.4009 75.9063 67.4137 77.3326C66.6528 78.4325 65.8047 79.4491 64.9547 80.4532C64.4848 81.0084 63.931 81.4606 63.4155 81.9596L63.2819 81.85L62.8006 81.3553L62.3026 80.0433C61.9596 78.5074 61.7796 76.9438 61.7499 75.3549L61.759 75.0876L61.8268 73.9314C61.8494 73.5368 61.8795 73.1427 61.8934 72.7472C61.9446 71.326 61.989 69.9049 62.0358 68.4838Z" fill="#409433"/>
<path fill-rule="evenodd" clip-rule="evenodd" d="M62.0358 68.4839C61.989 69.905 61.9446 71.3261 61.8942 72.7477C61.8803 73.1432 61.8502 73.5373 61.8276 73.9319L61.5243 74.0696C60.8507 71.6859 60.1766 69.3274 59.5173 66.9627C58.4269 63.0506 57.3497 59.1323 56.261 55.2192C55.3819 52.0606 54.4958 48.9052 53.6045 45.7513C53.5629 45.6036 53.4431 45.4883 53.3599 45.3577L55.3011 41.0677C55.3677 41.2068 55.4557 41.3369 55.4977 41.4866C56.3958 44.681 57.2922 47.8759 58.1811 51.0741C59.3373 55.2345 60.4863 59.3982 61.6416 63.5591C61.6876 63.7254 61.7638 63.8788 61.8363 64.0652L62.102 63.6934C62.0798 65.2904 62.0576 66.8869 62.0358 68.4839Z" fill="#4FAA41"/>
<path fill-rule="evenodd" clip-rule="evenodd" d="M53.3603 45.3582C53.4435 45.4887 53.5629 45.6041 53.6049 45.7518C54.4962 48.9057 55.3824 52.061 56.2614 55.2197C57.3501 59.1327 58.4274 63.051 59.5177 66.9631C60.1766 69.3273 60.8507 71.6863 61.5247 74.0701L61.828 73.9324L61.7602 75.0885L61.6987 75.3549C61.5933 76.6207 61.5045 77.8893 61.376 79.1522C61.3114 79.785 61.1742 80.4065 61.0699 81.0331C60.9914 80.8964 60.8812 80.772 60.8388 80.6204C58.6712 72.8539 56.51 65.0845 54.3459 57.3165C53.6573 54.8446 52.965 52.3741 52.2676 49.9055C52.2323 49.7802 52.1328 49.682 52.063 49.571C52.4952 48.1665 52.9277 46.7621 53.3603 45.3582Z" fill="#4AA73C"/>
<path fill-rule="evenodd" clip-rule="evenodd" d="M62.1016 63.6939L61.8359 64.0656C61.7634 63.8793 61.6872 63.7254 61.6413 63.5595C60.4863 59.3987 59.3369 55.2349 58.1807 51.0745C57.2918 47.8763 56.3954 44.6815 55.4973 41.4871C55.4557 41.3374 55.3677 41.2068 55.3007 41.0682L57.7014 37.2723C57.7771 37.3939 57.885 37.502 57.9242 37.6388C58.5907 39.984 59.2512 42.332 59.9078 44.6815C60.5212 46.8755 61.1254 49.073 61.7459 51.2642C61.7876 51.411 61.9323 51.5149 62.029 51.6388L62.0338 52.1368C62.0568 55.9884 62.0794 59.8414 62.1016 63.6939Z" fill="#57AE47"/>
<path fill-rule="evenodd" clip-rule="evenodd" d="M62.0298 51.6378C61.9331 51.5139 61.7883 51.41 61.7467 51.2633C61.1262 49.072 60.522 46.8746 59.9086 44.6805C59.252 42.331 58.5915 39.9835 57.925 37.6379C57.8858 37.5011 57.7779 37.3929 57.7022 37.2714C58.4829 36.3526 59.2393 35.4009 60.0513 34.5245C60.7733 33.7458 61.3538 32.9108 61.3804 31.6803C61.3816 31.6294 61.4038 31.5784 61.4379 31.4354L61.6436 32.0578C61.6385 32.3728 61.6151 32.6878 61.6321 33.0009C61.6619 33.5456 61.7348 34.0875 61.7554 34.6322C61.7935 35.6458 61.8117 36.6614 61.8288 37.6765C61.8561 39.3101 61.8811 40.9438 61.8982 42.5779C61.9247 45.1885 61.9422 47.7991 61.9695 50.4097C61.9727 50.82 62.0084 51.2285 62.0298 51.6378Z" fill="#60B24F"/>
<path fill-rule="evenodd" clip-rule="evenodd" d="M61.0691 81.0327C61.1734 80.406 61.3106 79.7841 61.3752 79.1517C61.5041 77.8893 61.5925 76.6202 61.6979 75.3544L61.7241 75.3497L61.7503 75.3549C61.78 76.9438 61.96 78.5074 62.303 80.0433C62.2332 80.1539 62.1345 80.2525 62.0976 80.3774C61.8094 81.3544 61.5378 82.3389 61.2479 83.3159C61.2083 83.4493 61.0981 83.5532 61.0204 83.6705L60.7242 82.4476L61.0691 81.0327Z" fill="#A9AA88"/>
<path fill-rule="evenodd" clip-rule="evenodd" d="M61.0208 83.6709C61.0985 83.5537 61.2091 83.4498 61.2483 83.3164C61.5382 82.3394 61.8102 81.3553 62.098 80.3779C62.1349 80.253 62.2332 80.1544 62.3034 80.0438L62.801 81.3563C62.7026 81.524 62.567 81.6751 62.5123 81.8619L61.5592 85.226C61.5199 85.3608 61.3859 85.4561 61.2963 85.57L61.0208 83.6709Z" fill="#B6B598"/>
<path fill-rule="evenodd" clip-rule="evenodd" d="M61.2963 85.5696C61.3863 85.4561 61.5199 85.3603 61.5592 85.2255L62.5123 81.8614C62.5666 81.6751 62.7026 81.5235 62.801 81.3558L63.2827 81.85C63.05 82.1264 62.9207 82.4457 62.9984 82.8493L62.8521 83.425C62.7855 83.5237 62.6892 83.6095 62.6563 83.7224C62.3236 84.8676 62.006 86.019 61.671 87.1641C61.6286 87.3095 61.5108 87.4234 61.4275 87.5511C61.3843 86.8901 61.3403 86.2305 61.2963 85.5696Z" fill="#C2C1A7"/>
<path fill-rule="evenodd" clip-rule="evenodd" d="M61.4279 87.5511C61.5108 87.4229 61.6286 87.309 61.6714 87.1641C62.0064 86.0194 62.324 84.868 62.6566 83.7224C62.6896 83.6099 62.7855 83.5237 62.8525 83.425L62.6507 86.0676C62.5968 86.1424 62.5187 86.2077 62.4929 86.2949C62.2649 87.064 62.05 87.8389 61.8213 88.6081C61.7741 88.7668 61.6837 88.9069 61.6131 89.0551C61.5505 88.9565 61.4383 88.8612 61.4331 88.7582C61.4129 88.3574 61.4268 87.9538 61.4279 87.5511Z" fill="#CECDB7"/>
<path fill-rule="evenodd" clip-rule="evenodd" d="M61.6127 89.0551C61.6833 88.9064 61.7737 88.7663 61.8209 88.6081C62.05 87.8394 62.2645 87.0645 62.4925 86.2949C62.5183 86.2077 62.5968 86.1429 62.6503 86.0676L62.6551 87.8023L62.1721 89.291L61.6127 89.0551Z" fill="#DBDAC7"/>
<path fill-rule="evenodd" clip-rule="evenodd" d="M62.1721 89.2915L62.6551 87.8027L62.7546 89.5641L62.1721 89.2915Z" fill="#EBE9DC"/>
<path fill-rule="evenodd" clip-rule="evenodd" d="M62.9984 82.8498C62.9207 82.4462 63.0496 82.1264 63.2827 81.8505L63.4163 81.9601L62.9984 82.8498Z" fill="#CECDB7"/>
<path fill-rule="evenodd" clip-rule="evenodd" d="M61.7503 75.3554L61.7241 75.3502L61.698 75.3549L61.7594 75.0885L61.7503 75.3554Z" fill="#4FAA41"/>
<path d="M66.9587 383.924C64.6099 383.53 62.582 382.177 61.5962 380.344C61.1625 379.538 60.9779 378.776 60.9811 377.805C60.9899 375.014 63.0724 372.683 66.3077 371.843C66.9037 371.688 67.297 371.647 68.2108 371.645C68.8443 371.644 69.5429 371.672 69.7633 371.708L70.164 371.774L70.6571 370.967C71.664 369.319 73.2333 368.024 75.262 367.168C76.9355 366.462 77.9872 366.256 79.9299 366.256C81.2906 366.256 81.6062 366.284 82.4841 366.48C86.275 367.326 89.2298 369.834 90.1598 372.993C90.3927 373.785 90.5088 375.558 90.3733 376.254L90.2808 376.73L90.8118 376.83C92.1424 377.081 93.2907 377.864 93.8778 378.922C94.4585 379.967 94.3522 381.32 93.6117 382.309C93.2338 382.813 92.4929 383.374 91.8747 383.624C91.5578 383.751 91.2202 383.891 91.1245 383.933C90.9097 384.028 67.5272 384.019 66.9587 383.924ZM91.2674 382.758C91.9253 382.482 92.5759 381.866 92.8463 381.262C93.4073 380.01 92.6589 378.554 91.1658 377.994C90.7888 377.853 90.5072 377.82 89.7209 377.827C89.1837 377.831 88.7443 377.802 88.7443 377.763C88.7443 377.724 88.8441 377.356 88.966 376.947C89.278 375.898 89.2749 374.226 88.9587 373.204C88.2622 370.953 86.4564 369.074 83.9863 368.033C82.9009 367.575 81.8685 367.366 80.4578 367.317C78.3704 367.245 76.9131 367.523 75.3072 368.297C73.4345 369.2 71.8202 370.836 71.1945 372.466C71.0741 372.779 70.9282 373.035 70.8702 373.035C70.8119 373.034 70.4717 372.952 70.1136 372.853C69.1174 372.576 67.4184 372.593 66.4242 372.889C65.4233 373.187 64.7028 373.569 63.9527 374.2C62.8283 375.144 62.2037 376.432 62.2037 377.805C62.2037 379.845 63.5366 381.633 65.7053 382.502C66.9516 383.001 66.5204 382.986 79.1784 382.97L90.7974 382.955L91.2674 382.758ZM57.7437 378.811C53.5402 378.33 50.3047 377.441 47.9115 376.107C46.924 375.557 46.2422 374.942 45.8578 374.253L45.5714 373.741L45.5977 359.86L45.6239 345.98L45.8631 345.602C46.4676 344.646 47.6463 343.83 49.5228 343.069C51.8956 342.107 54.6318 341.505 58.4448 341.108C60.015 340.944 65.3472 340.973 66.9587 341.154C72.8928 341.821 77.4978 343.455 78.9657 345.415C79.5442 346.187 79.5292 345.907 79.5292 355.997V365.262L79.2037 365.304C79.0247 365.328 78.6191 365.37 78.3024 365.398C75.0346 365.693 71.6457 367.596 69.9085 370.114L69.5528 370.63L68.1557 370.685C66.5048 370.751 65.6636 370.929 64.4085 371.479C62.2534 372.424 60.7131 374.061 60.0851 376.075C59.9116 376.631 59.8603 377.034 59.8568 377.868L59.8495 378.945L59.296 378.935C58.9916 378.929 58.2918 378.873 57.7409 378.811H57.7437ZM66.2889 366.017C65.5005 365.453 64.8185 364.964 64.7735 364.931C64.7284 364.897 64.8924 364.771 65.1375 364.65C65.6811 364.381 66.3811 363.739 66.6783 363.235C67.4046 362.005 67.3885 360.474 66.636 359.257C65.8088 357.918 64.0775 357.215 62.116 357.423C61.042 357.536 60.3692 357.79 59.6596 358.349C58.5396 359.232 58.1517 360.099 58.2106 361.586C58.2441 362.431 58.2799 362.583 58.5667 363.096C59.1842 364.201 60.4751 365.026 61.7902 365.157C62.285 365.207 62.3279 365.234 63.311 366.125L64.3227 367.042H66.0225H67.7224L66.2889 366.017ZM61.9995 363.138C61.3107 362.843 61.0491 362.339 61.0491 361.304C61.0491 360.631 61.0877 360.434 61.2841 360.098C61.5981 359.56 62.2243 359.237 62.8386 359.295C63.4428 359.353 63.7569 359.559 64.0765 360.107C64.319 360.523 64.3541 360.681 64.3512 361.344C64.3512 362.162 64.1761 362.581 63.6881 362.963C63.1783 363.363 62.6531 363.417 61.9995 363.138ZM55.0684 365.097C56.8797 364.745 57.8635 363.467 57.3419 362.143C57.0793 361.477 56.5242 361.06 55.1685 360.513C54.5424 360.261 53.9825 360.002 53.9243 359.939C53.6963 359.692 53.6968 359.529 53.9243 359.304C54.277 358.959 55.0801 358.942 56.1674 359.258L56.9969 359.499L56.9685 358.566L56.94 357.633L56.3892 357.523C55.5561 357.356 53.7553 357.364 53.0468 357.538C51.6263 357.887 50.8777 358.669 50.8824 359.801C50.8897 360.965 51.5096 361.517 53.7014 362.301C54.6286 362.632 54.7348 363.252 53.906 363.495C53.5224 363.607 53.4132 363.605 52.8062 363.473C52.4355 363.392 51.8731 363.213 51.5563 363.074L50.9803 362.823V363.833V364.843L51.5563 364.978C51.8731 365.052 52.1773 365.126 52.2324 365.142C52.4613 365.209 54.6694 365.174 55.0662 365.097H55.0684ZM74.4209 364.214V363.328H72.8183H71.2157V360.415V357.503H69.9136H68.6114V361.302V365.1H71.5162H74.4209V364.214ZM66.7083 349.016C69.3203 348.761 71.4636 348.299 72.8183 347.7C73.7083 347.307 73.9217 347.165 74.2638 346.74C75.3218 345.426 72.9528 344.105 68.361 343.449C64.047 342.831 58.3619 342.971 54.7232 343.783C47.2154 345.459 50.1751 348.538 59.8776 349.145C61.4699 349.245 65.0591 349.177 66.7083 349.016Z" fill="#F20B4D"/>
<path d="M86.275 372.6C85.55 371.6 84.3071 371 82.9607 371C82.0286 371 81.0964 371.3 80.3714 371.9C80.0607 372.1 79.8536 372.3 79.6464 372.6C79.1286 373.3 78.7143 374.1 78.7143 375.1C78.7143 376.4 79.3357 377.6 80.3714 378.3C81.0964 378.8 81.925 379.1 82.8572 379.1C83.7893 379.1 84.7214 378.8 85.4464 378.2C85.7572 378 85.9643 377.8 86.1714 377.5C86.6893 376.8 87.1036 376 87.1036 375C87.1036 374.1 86.7929 373.3 86.275 372.6Z" fill="#F20B4B"/>
<path d="M211.596 373.6C210.871 372.6 209.629 372 208.282 372C207.35 372 206.418 372.3 205.693 372.9C205.382 373.1 205.175 373.3 204.968 373.6C204.45 374.3 204.036 375.1 204.036 376.1C204.036 377.4 204.657 378.6 205.693 379.3C206.418 379.8 207.246 380.1 208.179 380.1C209.111 380.1 210.043 379.8 210.768 379.2C211.079 379 211.286 378.8 211.493 378.5C212.011 377.8 212.425 377 212.425 376C212.425 375.1 212.114 374.3 211.596 373.6Z" fill="#F20B4B"/>
<path d="M296.732 305C307.314 305 315.893 297.165 315.893 287.5C315.893 277.835 307.314 270 296.732 270C286.15 270 277.571 277.835 277.571 287.5C277.571 297.165 286.15 305 296.732 305Z" fill="#19ADE5"/>
<path d="M290.754 280.71H294.088V289.285C294.088 293.135 292.057 294.5 288.838 294.5C288.033 294.5 287.037 294.395 286.385 294.185L286.769 291.7C287.228 291.84 287.842 291.945 288.493 291.945C289.911 291.945 290.792 291.35 290.792 289.285L290.754 280.71Z" fill="#F20B4B"/>
<path d="M297.039 291.14C297.92 291.56 299.338 291.98 300.756 291.98C302.289 291.98 303.094 291.385 303.094 290.475C303.094 289.635 302.404 289.145 300.603 288.585C298.15 287.78 296.502 286.52 296.502 284.525C296.502 282.25 298.648 280.5 302.135 280.5C303.822 280.5 305.048 280.815 305.929 281.2L305.163 283.65C304.588 283.405 303.515 283.02 302.097 283.02C300.641 283.02 299.951 283.65 299.951 284.315C299.951 285.19 300.756 285.575 302.71 286.24C305.316 287.115 306.542 288.375 306.542 290.3C306.542 292.575 304.665 294.5 300.564 294.5C298.878 294.5 297.192 294.08 296.349 293.66L297.039 291.14Z" fill="#F20B4B"/>
<path d="M219.571 52C231.584 52 241.321 43.0457 241.321 32C241.321 20.9543 231.584 12 219.571 12C207.559 12 197.821 20.9543 197.821 32C197.821 43.0457 207.559 52 219.571 52Z" fill="#F0652A"/>
<path d="M209.218 22L211.089 41.4L219.528 43.6L228.01 41.4L229.924 22H209.218ZM225.835 28.32H215.917L216.135 30.76H225.574L224.835 38.12L219.571 39.44H219.528L214.221 38.08L213.916 34.36H216.483L216.657 36.24L219.528 36.96L222.399 36.24L222.703 33.16H213.786L213.09 25.96H226.053L225.835 28.32Z" fill="white"/>
<path d="M385.933 69.1989C387.631 69.1989 389.008 67.8348 389.008 66.1521C389.008 64.4693 387.631 63.1052 385.933 63.1052C384.235 63.1052 382.858 64.4693 382.858 66.1521C382.858 67.8348 384.235 69.1989 385.933 69.1989Z" fill="#19ADE5"/>
<path d="M385.933 73.138C382.237 73.2265 378.551 72.7329 375.011 71.6755C373.376 71.1619 371.851 70.3528 370.514 69.2891C370.003 68.9258 369.578 68.4573 369.267 67.9158C368.957 67.3743 368.768 66.7726 368.714 66.1521C368.714 64.1375 370.948 62.1631 374.689 60.8712C378.323 59.7265 382.12 59.1717 385.933 59.2284C389.695 59.1763 393.441 59.721 397.029 60.842C398.604 61.3394 400.077 62.1094 401.381 63.1162C401.882 63.4626 402.301 63.9141 402.607 64.4388C402.913 64.9634 403.099 65.5483 403.152 66.1521C403.152 68.2459 400.655 70.3677 396.633 71.6864C393.162 72.7094 389.554 73.1989 385.933 73.138ZM385.933 60.686C382.285 60.6377 378.653 61.1651 375.173 62.2484C371.729 63.4391 370.185 65.0674 370.185 66.1484C370.185 67.2794 371.844 69.0576 375.487 70.2922C378.873 71.2987 382.399 71.7672 385.933 71.6803C389.397 71.7417 392.85 71.2773 396.172 70.3031C399.954 69.0612 401.676 67.2806 401.676 66.1521C401.614 65.7648 401.471 65.3945 401.258 65.0645C401.044 64.7345 400.763 64.4521 400.434 64.235C399.267 63.3418 397.951 62.6594 396.546 62.2192C393.113 61.1513 389.531 60.6337 385.933 60.686Z" fill="#19ADE5"/>
<path d="M378.947 81.3487C378.373 81.3617 377.806 81.2238 377.304 80.9489C375.543 79.9422 374.933 77.0392 375.672 73.1818C376.487 69.4903 377.899 65.9538 379.854 62.7091C381.687 59.4539 384.034 56.5104 386.806 53.9902C388.028 52.8868 389.437 52.0067 390.968 51.3906C391.522 51.1333 392.126 51 392.738 51C393.35 51 393.954 51.1333 394.508 51.3906C396.339 52.4363 396.946 55.6391 396.091 59.75C395.251 63.2412 393.875 66.584 392.012 69.6621C390.244 72.8788 387.97 75.7967 385.277 78.3067C384.012 79.4532 382.543 80.3578 380.945 80.9745C380.305 81.2098 379.629 81.3363 378.947 81.3487ZM381.128 63.433C379.263 66.54 377.91 69.9213 377.118 73.4499C376.438 77.0026 377.091 79.1391 378.041 79.6826C379.025 80.2469 381.413 79.7119 384.313 77.2013C386.884 74.7966 389.054 72.0035 390.742 68.9259C392.527 65.9833 393.846 62.7873 394.654 59.4489C395.459 55.5794 394.764 53.2102 393.777 52.6471C393.408 52.5067 393.013 52.4439 392.617 52.4626C392.222 52.4812 391.834 52.581 391.48 52.7556C390.117 53.313 388.864 54.1043 387.778 55.0931C385.129 57.5072 382.887 60.3252 381.136 63.4404L381.128 63.433Z" fill="#19ADE5"/>
<path d="M392.915 81.3645C391.249 81.3645 389.132 80.3651 386.928 78.487C384.107 75.9438 381.721 72.9654 379.86 69.6669C377.93 66.4669 376.529 62.9815 375.71 59.3429C375.355 57.7421 375.289 56.0915 375.516 54.4679C375.568 53.8656 375.753 53.282 376.058 52.7583C376.363 52.2346 376.78 51.7835 377.279 51.4369C379.108 50.3875 382.211 51.4661 385.378 54.2522C388.011 56.7167 390.247 59.5668 392.008 62.703C393.936 65.8283 395.352 69.2374 396.202 72.8028C396.572 74.4624 396.629 76.1755 396.37 77.8557C396.308 78.4753 396.112 79.0744 395.795 79.6119C395.478 80.1494 395.047 80.6125 394.533 80.9696C394.038 81.2411 393.48 81.3774 392.915 81.3645ZM381.133 68.9333C382.918 72.0855 385.198 74.936 387.887 77.378C390.653 79.7363 392.848 80.2433 393.791 79.6936C394.775 79.1269 395.501 76.8137 394.753 73.0709C393.933 69.6669 392.576 66.4128 390.73 63.4294C389.049 60.4277 386.915 57.6986 384.402 55.3369C381.42 52.7141 379.002 52.1279 378.017 52.6934C377.71 52.9407 377.458 53.2483 377.277 53.597C377.096 53.9456 376.99 54.3277 376.966 54.719C376.77 56.167 376.834 57.6378 377.154 59.0638C377.941 62.5435 379.285 65.8762 381.134 68.9357L381.133 68.9333Z" fill="#19ADE5"/>
<path d="M293.625 154C303.635 154 311.75 146.389 311.75 137C311.75 127.611 303.635 120 293.625 120C283.615 120 275.5 127.611 275.5 137C275.5 146.389 283.615 154 293.625 154Z" fill="#F20B4B"/>
<path d="M303.05 129.52L300.15 143.12L291.414 145.84L283.837 143.12L284.599 139.482H287.825L287.499 140.978L292.102 142.61L297.395 140.978L298.12 137.51H284.997L285.614 134.484H298.772L299.171 132.546H286.049L286.701 129.52H303.05Z" fill="#19ADE5"/>
<path d="M218.536 236C233.408 236 245.464 224.359 245.464 210C245.464 195.641 233.408 184 218.536 184C203.663 184 191.607 195.641 191.607 210C191.607 224.359 203.663 236 218.536 236Z" fill="#F20B4B"/>
<path d="M225.214 197.52L214.389 207.92L207.226 202.72L204.533 203.604V216.604L207.226 218.32L214.389 213.12L225.052 223.52L231.461 220.92V200.068L225.214 197.52ZM207.226 214.004V207.036L211.696 210.52L207.226 214.004ZM225.16 215.72L217.997 210.52L225.16 205.32V215.72Z" fill="white"/>
</g>
</g>
<defs>
<clipPath id="clip0_6_9">
<rect width="435" height="420" fill="white"/>
</clipPath>
<clipPath id="clip1_6_9">
<rect width="435" height="420" fill="white"/>
</clipPath>
<clipPath id="clip2_6_9">
<rect width="32.1071" height="35" fill="white" transform="translate(18.6429 193)"/>
</clipPath>
</defs>
</svg>
