<svg width="960" height="624" viewBox="0 0 960 624" fill="none" xmlns="http://www.w3.org/2000/svg">
<rect width="960" height="624" fill="#F5F5F5"/>
<g clip-path="url(#clip0_0_1)">
<path d="M415.7 385.5C461.65 385.5 498.9 306.881 498.9 209.9C498.9 112.919 461.65 34.3 415.7 34.3C369.75 34.3 332.5 112.919 332.5 209.9C332.5 306.881 369.75 385.5 415.7 385.5Z" stroke="#F66988" stroke-width="0.98" stroke-miterlimit="10"/>
<path d="M415.7 293.1C512.681 293.1 591.3 255.85 591.3 209.9C591.3 163.95 512.681 126.7 415.7 126.7C318.719 126.7 240.1 163.95 240.1 209.9C240.1 255.85 318.719 293.1 415.7 293.1Z" stroke="#F66988" stroke-width="0.98" stroke-miterlimit="10"/>
<path d="M565.573 359.809C587.442 337.94 538.056 253.097 455.265 170.306C372.475 87.5158 287.632 38.1295 265.763 59.9986C243.894 81.8678 293.28 166.711 376.07 249.501C458.861 332.292 543.704 381.678 565.573 359.809Z" stroke="#F66988" stroke-width="0.98" stroke-miterlimit="10"/>
<path d="M455.265 249.501C538.056 166.711 587.442 81.8678 565.573 59.9986C543.704 38.1295 458.861 87.5159 376.07 170.306C293.28 253.097 243.894 337.94 265.763 359.809C287.632 381.678 372.475 332.292 455.265 249.501Z" stroke="#F66988" stroke-width="0.98" stroke-miterlimit="10"/>
<path d="M415.7 258.8C442.707 258.8 464.6 236.907 464.6 209.9C464.6 182.893 442.707 161 415.7 161C388.693 161 366.8 182.893 366.8 209.9C366.8 236.907 388.693 258.8 415.7 258.8Z" fill="#EFEFEF"/>
<path d="M415.7 389.3C514.78 389.3 595.1 308.98 595.1 209.9C595.1 110.82 514.78 30.5 415.7 30.5C316.62 30.5 236.3 110.82 236.3 209.9C236.3 308.98 316.62 389.3 415.7 389.3Z" stroke="#F66988" stroke-width="0.98" stroke-miterlimit="10"/>
<path d="M491.5 310.1C504.976 310.1 515.9 299.176 515.9 285.7C515.9 272.224 504.976 261.3 491.5 261.3C478.024 261.3 467.1 272.224 467.1 285.7C467.1 299.176 478.024 310.1 491.5 310.1Z" fill="#EFEFEF"/>
<path d="M565.6 90.2C582.279 90.2 595.8 76.679 595.8 60C595.8 43.321 582.279 29.8 565.6 29.8C548.921 29.8 535.4 43.321 535.4 60C535.4 76.679 548.921 90.2 565.6 90.2Z" fill="#EFEFEF"/>
<path d="M489.1 161C502.576 161 513.5 150.076 513.5 136.6C513.5 123.124 502.576 112.2 489.1 112.2C475.624 112.2 464.7 123.124 464.7 136.6C464.7 150.076 475.624 161 489.1 161Z" fill="#EFEFEF"/>
<path d="M415.7 415.7C432.379 415.7 445.9 402.179 445.9 385.5C445.9 368.821 432.379 355.3 415.7 355.3C399.021 355.3 385.5 368.821 385.5 385.5C385.5 402.179 399.021 415.7 415.7 415.7Z" fill="#EFEFEF"/>
<path d="M265.8 390.1C282.479 390.1 296 376.579 296 359.9C296 343.221 282.479 329.7 265.8 329.7C249.121 329.7 235.6 343.221 235.6 359.9C235.6 376.579 249.121 390.1 265.8 390.1Z" fill="#EFEFEF"/>
<path d="M415.9 64.7C432.579 64.7 446.1 51.179 446.1 34.5C446.1 17.821 432.579 4.29999 415.9 4.29999C399.221 4.29999 385.7 17.821 385.7 34.5C385.7 51.179 399.221 64.7 415.9 64.7Z" fill="#EFEFEF"/>
<path d="M403.9 383.6H410C410.1 382 410.7 380.5 411.8 379.4L408.3 375.9C407.6 376.4 406.8 376.8 405.8 376.8C404.9 376.8 404 376.5 403.4 376C402.4 377.6 401.7 379.4 401.4 381.3C402.6 381.3 403.7 382.3 403.9 383.6Z" fill="#19ADE5"/>
<path d="M408.9 375.1L412.4 378.6C413.7 377.5 415.3 376.8 417.1 376.8C418.9 376.8 420.6 377.5 421.8 378.6L426 374.4C425.7 373.9 425.5 373.4 425.5 372.7C425.5 371.9 425.8 371.2 426.3 370.7C423.7 368.9 420.5 367.8 417.1 367.8C414.1 367.8 411.3 368.6 408.9 370.1C409.4 370.8 409.7 371.6 409.7 372.5C409.7 373.6 409.4 374.4 408.9 375.1Z" fill="#19ADE5"/>
<path d="M416.6 397.3V391.2C413 391 410.2 388.1 409.9 384.5H403.8C403.6 385.8 402.5 386.8 401.2 386.9C402.4 393.5 407.6 398.7 414.2 399.9C414.4 398.6 415.4 397.5 416.6 397.3Z" fill="#19ADE5"/>
<path d="M433.2 384.1C433.2 380.7 432.1 377.5 430.3 374.9C429.8 375.4 429.1 375.7 428.3 375.7C427.7 375.7 427.1 375.5 426.6 375.2L422.4 379.4C423.5 380.7 424.2 382.3 424.2 384.1C424.2 387.9 421.2 391 417.5 391.3V397.4C418.8 397.6 419.8 398.7 419.9 400C427.5 398.5 433.2 392 433.2 384.1Z" fill="#19ADE5"/>
<path d="M426 374.5L421.8 378.7C422 378.9 422.3 379.1 422.5 379.4L426.7 375.2C426.4 375 426.2 374.8 426 374.5Z" fill="#023279"/>
<path d="M412.4 378.6L408.9 375.1C408.7 375.4 408.5 375.6 408.2 375.8L411.7 379.3C411.9 379.1 412.2 378.9 412.4 378.6Z" fill="#023279"/>
<path d="M410 383.6H403.9C403.9 383.8 403.9 383.9 403.9 384.1C403.9 384.3 403.9 384.4 403.9 384.6H410C410 384.4 410 384.3 410 384.1C409.9 383.9 410 383.7 410 383.6Z" fill="#023279"/>
<path d="M416.6 391.2V397.3C416.8 397.3 416.9 397.3 417.1 397.3C417.3 397.3 417.4 397.3 417.6 397.3V391.2C417.4 391.2 417.3 391.2 417.1 391.2C417 391.2 416.8 391.2 416.6 391.2Z" fill="#023279"/>
<path d="M426 374.5L427.3 373.2L428 373.9L426.7 375.2C427.2 375.5 427.7 375.7 428.4 375.7C429.2 375.7 429.9 375.4 430.4 374.9C429.3 373.3 427.9 371.9 426.3 370.8C425.8 371.3 425.5 372 425.5 372.8C425.5 373.4 425.7 374 426 374.5Z" fill="#F20B4B"/>
<path d="M427.3 373.2L426 374.5C426.2 374.8 426.4 375 426.7 375.2L428 373.9L427.3 373.2Z" fill="#19ADE5"/>
<path d="M428.4 369.9C427.6 369.9 426.8 370.2 426.3 370.8C425.8 371.3 425.5 372 425.5 372.8C425.5 373.4 425.7 374 426 374.5C426.2 374.8 426.4 375 426.7 375.2C427.2 375.5 427.7 375.7 428.4 375.7C429.2 375.7 429.9 375.4 430.4 374.9C430.9 374.4 431.3 373.6 431.3 372.8C431.3 371.2 430 369.9 428.4 369.9Z" fill="#F20B4B"/>
<path d="M417.6 397.3V400.1C418.4 400.1 419.2 400 420 399.9C419.9 398.6 418.9 397.5 417.6 397.3Z" fill="#F20B4B"/>
<path d="M416.6 397.3C415.3 397.5 414.3 398.6 414.2 399.9C415 400 415.8 400.1 416.6 400.1V397.3Z" fill="#F20B4B"/>
<path d="M416.6 400.1V400.4H417.6V400.1C417.4 400.1 417.3 400.1 417.1 400.1C416.9 400.1 416.8 400.1 416.6 400.1Z" fill="#19ADE5"/>
<path d="M416.6 400.1V400.4H417.6V400.1C417.4 400.1 417.3 400.1 417.1 400.1C416.9 400.1 416.8 400.1 416.6 400.1Z" fill="#9C0333"/>
<path d="M416.6 397.3V400.1C416.8 400.1 416.9 400.1 417.1 400.1C417.3 400.1 417.4 400.1 417.6 400.1V397.3C417.4 397.3 417.3 397.3 417.1 397.3C417 397.3 416.8 397.3 416.6 397.3Z" fill="#19ADE5"/>
<path d="M420 399.9C419.9 398.6 418.9 397.5 417.6 397.3C417.4 397.3 417.3 397.3 417.1 397.3C416.9 397.3 416.8 397.3 416.6 397.3C415.3 397.5 414.3 398.6 414.2 399.9C414.2 400 414.2 400.1 414.2 400.2C414.2 401.8 415.5 403.1 417.1 403.1C418.7 403.1 420 401.8 420 400.2C420 400.1 420 400 420 399.9Z" fill="#F20B4B"/>
<path d="M408.9 375.1C409.4 374.4 409.8 373.6 409.8 372.6C409.8 371.7 409.5 370.8 409 370.2C408 370.8 407.1 371.5 406.2 372.3L408.9 375.1Z" fill="#F20B4B"/>
<path d="M408.2 375.8L405.4 373C404.6 373.9 403.9 374.8 403.3 375.8C404 376.3 404.8 376.6 405.7 376.6C406.7 376.7 407.5 376.3 408.2 375.8Z" fill="#F20B4B"/>
<path d="M406.1 372.3L403.3 369.5C403 369.7 402.8 369.9 402.6 370.2L405.4 373C405.6 372.8 405.9 372.6 406.1 372.3Z" fill="#19ADE5"/>
<path d="M408.9 375.1L406.1 372.3C405.9 372.5 405.6 372.8 405.4 373L408.2 375.8C408.4 375.6 408.7 375.4 408.9 375.1Z" fill="#19ADE5"/>
<path d="M403.9 384.5H402.8V383.5H403.9C403.7 382.2 402.6 381.2 401.3 381.1C401.1 382 401 383 401 384C401 385 401.1 385.9 401.3 386.9C402.6 386.8 403.7 385.8 403.9 384.5Z" fill="#F20B4B"/>
<path d="M403.9 383.6H402.8V384.6H403.9C403.9 384.4 403.9 384.3 403.9 384.1C403.9 383.9 403.9 383.7 403.9 383.6Z" fill="#19ADE5"/>
<path d="M403.9 383.6C403.7 382.3 402.6 381.3 401.3 381.2C401.2 381.2 401.1 381.2 401 381.2C399.4 381.2 398.1 382.5 398.1 384.1C398.1 385.7 399.4 387 401 387C401.1 387 401.2 387 401.3 387C402.6 386.9 403.7 385.9 403.9 384.6C403.9 384.4 403.9 384.3 403.9 384.1C403.9 383.9 403.9 383.7 403.9 383.6Z" fill="#F20B4B"/>
<path d="M411.7 379.3C410.7 380.4 410.1 381.9 409.9 383.5H415.9L411.7 379.3Z" fill="#F20B4B"/>
<path d="M417.6 391.2C421.3 390.9 424.3 387.8 424.3 384C424.3 382.2 423.6 380.5 422.5 379.3L417.6 384.2V391.2Z" fill="#F20B4B"/>
<path d="M410 384.5C410.2 388.1 413.1 390.9 416.7 391.2V384.5H410Z" fill="#F20B4B"/>
<path d="M421.9 378.6C420.6 377.5 419 376.8 417.2 376.8C415.4 376.8 413.7 377.5 412.5 378.6L417.2 383.3L421.9 378.6Z" fill="#F20B4B"/>
<path d="M421.9 378.6L417.2 383.3L417.5 383.6L417.2 383.9H417.7V384.1L422.6 379.2C422.3 379.1 422.1 378.9 421.9 378.6Z" fill="#19ADE5"/>
<path d="M416.9 383.6L417.1 383.4L412.4 378.7C412.2 378.9 411.9 379.1 411.7 379.4L415.9 383.6H416.9Z" fill="#19ADE5"/>
<path d="M417.1 383.6V384.1L417.5 383.7L417.1 383.4L416.9 383.6H417.1Z" fill="#19ADE5"/>
<path d="M417.1 383.6V384.1L417.5 383.7L417.1 383.4L416.9 383.6H417.1Z" fill="#9C0333"/>
<path d="M416.6 384.3L415.9 383.6H409.9C409.9 383.8 409.9 383.9 409.9 384.1C409.9 384.3 409.9 384.4 409.9 384.6H416.6V384.3Z" fill="#19ADE5"/>
<path d="M416.9 383.6H416L416.6 384.3V384.1H417.1L416.8 383.7L416.9 383.6Z" fill="#19ADE5"/>
<path d="M416.9 383.6H416L416.6 384.3V384.1H417.1L416.8 383.7L416.9 383.6Z" fill="#9C0333"/>
<path d="M416.9 383.6L416.8 383.7L417.1 384.1V383.6H416.9Z" fill="#19ADE5"/>
<path d="M416.9 383.6L416.8 383.7L417.1 384.1V383.6H416.9Z" fill="#9C0333"/>
<path d="M417.5 384.4L417.2 384.1V384.6H416.7V391.3C416.9 391.3 417 391.3 417.2 391.3C417.4 391.3 417.5 391.3 417.7 391.3V384.3L417.5 384.4Z" fill="#19ADE5"/>
<path d="M422.5 379.3C422.3 379.1 422.1 378.8 421.8 378.6C420.5 377.5 418.9 376.8 417.1 376.8C415.3 376.8 413.6 377.5 412.4 378.6C412.2 378.8 411.9 379 411.7 379.3C410.7 380.4 410.1 381.9 409.9 383.5C409.9 383.7 409.9 383.8 409.9 384C409.9 384.2 409.9 384.3 409.9 384.5C410.1 388.1 413 390.9 416.6 391.2C416.8 391.2 416.9 391.2 417.1 391.2C417.3 391.2 417.4 391.2 417.6 391.2C421.3 390.9 424.3 387.8 424.3 384C424.3 382.2 423.7 380.6 422.5 379.3Z" fill="#F20B4B"/>
<path d="M237.8 238.1C253.43 238.1 266.1 225.43 266.1 209.8C266.1 194.17 253.43 181.5 237.8 181.5C222.17 181.5 209.5 194.17 209.5 209.8C209.5 225.43 222.17 238.1 237.8 238.1Z" fill="#EFEFEF"/>
<path d="M265.8 90.4C282.479 90.4 296 76.879 296 60.2C296 43.521 282.479 30 265.8 30C249.121 30 235.6 43.521 235.6 60.2C235.6 76.879 249.121 90.4 265.8 90.4Z" fill="#EFEFEF"/>
<path d="M591.3 244C607.979 244 621.5 230.479 621.5 213.8C621.5 197.121 607.979 183.6 591.3 183.6C574.621 183.6 561.1 197.121 561.1 213.8C561.1 230.479 574.621 244 591.3 244Z" fill="#EFEFEF"/>
<path d="M590.7 235.48C590.088 235.48 589.517 235.324 588.987 235.051L583.562 231.968C582.747 231.538 583.154 231.382 583.399 231.304C584.5 230.953 584.704 230.875 585.846 230.25C585.969 230.172 586.132 230.211 586.254 230.29L590.414 232.67C590.578 232.748 590.782 232.748 590.904 232.67L607.178 223.655C607.341 223.577 607.423 223.421 607.423 223.226V205.235C607.423 205.04 607.341 204.883 607.178 204.805L590.904 195.829C590.741 195.751 590.537 195.751 590.414 195.829L574.141 204.805C573.977 204.883 573.896 205.079 573.896 205.235V223.226C573.896 223.382 573.977 223.577 574.141 223.655L578.586 226.114C580.993 227.284 582.502 225.919 582.502 224.553V206.796C582.502 206.562 582.706 206.327 582.991 206.327H585.071C585.316 206.327 585.561 206.523 585.561 206.796V224.553C585.561 227.636 583.807 229.431 580.748 229.431C579.81 229.431 579.076 229.431 576.996 228.455L572.713 226.114C571.653 225.528 571 224.436 571 223.265V205.274C571 204.103 571.653 203.01 572.713 202.425L588.987 193.41C590.007 192.863 591.393 192.863 592.413 193.41L608.687 202.425C609.747 203.01 610.4 204.103 610.4 205.274V223.265C610.4 224.436 609.747 225.528 608.687 226.114L592.413 235.129C591.883 235.363 591.271 235.48 590.7 235.48ZM595.717 223.109C588.579 223.109 587.111 219.987 587.111 217.333C587.111 217.099 587.315 216.865 587.6 216.865H589.721C589.966 216.865 590.17 217.021 590.17 217.255C590.496 219.323 591.434 220.338 595.758 220.338C599.184 220.338 600.652 219.596 600.652 217.84C600.652 216.825 600.244 216.084 594.901 215.577C590.455 215.147 587.682 214.211 587.682 210.815C587.682 207.654 590.455 205.781 595.105 205.781C600.326 205.781 602.895 207.498 603.222 211.245C603.222 211.362 603.181 211.479 603.099 211.596C603.018 211.674 602.895 211.752 602.773 211.752H600.652C600.448 211.752 600.244 211.596 600.203 211.401C599.714 209.254 598.449 208.552 595.105 208.552C591.353 208.552 590.904 209.801 590.904 210.737C590.904 211.869 591.434 212.22 596.492 212.845C601.508 213.469 603.874 214.367 603.874 217.723C603.833 221.157 600.897 223.109 595.717 223.109Z" fill="#F20B4B"/>
<g clip-path="url(#clip1_0_1)">
<path d="M236.582 227.905C231.741 227.19 227.562 224.054 225.061 219.258C224.228 217.661 223.562 215.606 223.245 213.657C222.813 211.001 222.956 208.068 223.64 205.507C224.205 203.397 225.1 201.447 226.331 199.649C226.845 198.899 228.228 197.336 228.893 196.756C231.336 194.621 234.121 193.367 237.125 193.051C238.076 192.951 239.839 193.004 240.746 193.16C245.55 193.987 249.678 197.217 252.069 202.018C254.334 206.565 254.627 212.342 252.839 217.196C250.672 223.076 245.947 227.121 240.323 227.912C239.463 228.033 237.423 228.029 236.582 227.905ZM234.533 221.737C234.714 221.176 234.982 220.729 235.402 220.291L235.761 219.915L235.472 219.87C233.89 219.62 232.177 218.986 231.096 218.248C229.269 217.002 228.345 214.68 228.346 211.338C228.346 209.883 228.488 209.071 228.905 208.13C229.192 207.484 229.299 207.3 229.691 206.781L229.983 206.394L229.827 205.717C229.556 204.55 229.601 203.448 229.97 202.173L230.125 201.64H230.527C231.414 201.64 232.524 202.111 233.831 203.038L234.475 203.495L235.194 203.296C236.361 202.975 236.927 202.91 238.558 202.914C240.155 202.919 240.747 202.989 241.914 203.323L242.52 203.496L243.107 203.078C244.426 202.138 245.587 201.642 246.468 201.64H246.87L246.997 202.035C247.439 203.412 247.479 204.863 247.107 206.075L247.027 206.339L247.416 206.891C247.859 207.519 248.349 208.601 248.49 209.263C248.909 211.223 248.639 214.09 247.874 215.821C247.314 217.088 246.53 217.941 245.27 218.656C244.503 219.092 242.856 219.64 241.705 219.842L241.236 219.925L241.485 220.148C241.795 220.425 242.11 220.869 242.307 221.305C242.568 221.885 242.628 222.411 242.629 224.12C242.63 225.587 242.637 225.687 242.737 225.643C242.795 225.618 243.089 225.5 243.39 225.381C244.116 225.095 245.493 224.302 246.247 223.737C249.028 221.652 251.076 218.513 251.987 214.938C252.376 213.409 252.538 212.115 252.538 210.533C252.538 206.108 251.035 202.131 248.194 199.042C246.095 196.759 243.444 195.304 240.472 194.802C239.482 194.634 237.525 194.631 236.552 194.796C233.43 195.325 230.786 196.821 228.588 199.305C226.406 201.769 225.078 204.741 224.598 208.235C224.448 209.329 224.448 211.669 224.598 212.763C224.874 214.773 225.514 216.855 226.348 218.454C228.036 221.694 230.696 224.214 233.683 225.402L234.333 225.66L234.368 223.899C234.399 222.335 234.418 222.094 234.533 221.737Z" fill="#00BCF2"/>
</g>
<path fill-rule="evenodd" clip-rule="evenodd" d="M273.702 50.4026C274.316 52.6153 274.759 54.8742 274.904 57.2155C275.085 60.1202 275.002 63.0043 274.511 65.8613C274.497 65.94 274.469 66.0138 274.448 66.0901C274.293 66.0906 274.136 66.0667 273.985 66.0958C272.711 66.345 271.438 66.6033 270.164 66.8602C268.848 67.1256 267.53 67.3806 266.217 67.6642C265.751 67.7642 265.175 67.6446 264.987 68.4462C264.982 68.4681 264.928 68.4719 264.897 68.4843L264.961 63.6944C264.939 59.8419 264.917 55.9893 264.896 52.1368L265.509 52.0057C266.512 51.8013 267.515 51.594 268.519 51.3953C269.717 51.1584 270.916 50.9282 272.114 50.6971C272.643 50.5946 273.172 50.5008 273.702 50.4026Z" fill="#439934"/>
<path fill-rule="evenodd" clip-rule="evenodd" d="M263.631 82.4476C262.984 81.7551 262.314 81.0932 261.694 80.365C258.357 76.4467 255.916 71.835 254.714 66.275C254.383 64.7447 254.162 63.1897 254.091 61.6085C254.042 60.5019 253.97 59.3853 254.032 58.2844C254.2 55.3564 254.54 52.4566 255.229 49.6363L255.267 49.5705C255.334 49.6815 255.431 49.7797 255.465 49.905C256.138 52.3736 256.807 54.8441 257.472 57.3161C259.561 65.084 261.648 72.8539 263.741 80.62C263.781 80.7715 263.888 80.8959 263.964 81.0327L263.631 82.4476Z" fill="#45A538"/>
<path fill-rule="evenodd" clip-rule="evenodd" d="M273.702 50.4026C273.172 50.5008 272.642 50.5946 272.114 50.6961C270.915 50.9273 269.716 51.1575 268.518 51.3943C267.515 51.593 266.512 51.8003 265.509 52.0048L264.895 52.1358L264.891 51.6378C264.871 51.2285 264.836 50.8196 264.832 50.4102C264.805 47.7996 264.789 45.189 264.763 42.5784C264.747 40.9442 264.723 39.3106 264.696 37.6769C264.68 36.6619 264.662 35.6463 264.625 34.6326C264.605 34.0879 264.535 33.5461 264.506 33.0014C264.49 32.6883 264.512 32.3728 264.517 32.0583C264.83 32.8127 265.136 33.5728 265.457 34.3215C265.965 35.5052 266.775 36.3773 267.503 37.329C270.383 41.0901 272.428 45.463 273.702 50.4026Z" fill="#46A037"/>
<path fill-rule="evenodd" clip-rule="evenodd" d="M264.897 68.4838C264.928 68.4714 264.982 68.4676 264.987 68.4457C265.175 67.6441 265.751 67.7637 266.216 67.6637C267.53 67.3806 268.848 67.1252 270.164 66.8597C271.437 66.6028 272.711 66.3445 273.985 66.0953C274.136 66.0658 274.293 66.0901 274.447 66.0896C274.209 67.1475 274.022 68.2284 273.72 69.2573C273.377 70.4244 272.962 71.5634 272.521 72.68C271.863 74.3494 271.042 75.9063 270.089 77.3326C269.354 78.4325 268.536 79.4491 267.715 80.4532C267.261 81.0084 266.726 81.4606 266.229 81.9596L266.1 81.85L265.635 81.3553L265.154 80.0433C264.823 78.5074 264.649 76.9438 264.621 75.3549L264.629 75.0876L264.695 73.9314C264.717 73.5368 264.746 73.1427 264.759 72.7472C264.809 71.326 264.851 69.9049 264.897 68.4838Z" fill="#409433"/>
<path fill-rule="evenodd" clip-rule="evenodd" d="M264.897 68.4839C264.851 69.905 264.809 71.3261 264.76 72.7477C264.747 73.1432 264.717 73.5373 264.696 73.9319L264.403 74.0696C263.752 71.6859 263.102 69.3274 262.465 66.9627C261.412 63.0506 260.372 59.1323 259.321 55.2192C258.472 52.0606 257.617 48.9052 256.756 45.7513C256.716 45.6036 256.6 45.4883 256.52 45.3577L258.394 41.0677C258.458 41.2068 258.543 41.3369 258.584 41.4866C259.451 44.681 260.317 47.8759 261.175 51.0741C262.291 55.2345 263.401 59.3982 264.516 63.5591C264.56 63.7254 264.634 63.8788 264.704 64.0652L264.961 63.6934C264.939 65.2904 264.918 66.8869 264.897 68.4839Z" fill="#4FAA41"/>
<path fill-rule="evenodd" clip-rule="evenodd" d="M256.52 45.3582C256.601 45.4887 256.716 45.6041 256.756 45.7518C257.617 48.9057 258.473 52.061 259.321 55.2197C260.373 59.1327 261.413 63.051 262.465 66.9631C263.102 69.3273 263.752 71.6863 264.403 74.0701L264.696 73.9324L264.631 75.0885L264.571 75.3549C264.469 76.6207 264.384 77.8893 264.26 79.1522C264.197 79.785 264.065 80.4065 263.964 81.0331C263.888 80.8964 263.782 80.772 263.741 80.6204C261.648 72.8539 259.561 65.0845 257.472 57.3165C256.807 54.8446 256.139 52.3741 255.465 49.9055C255.431 49.7802 255.335 49.682 255.268 49.571C255.685 48.1665 256.103 46.7621 256.52 45.3582Z" fill="#4AA73C"/>
<path fill-rule="evenodd" clip-rule="evenodd" d="M264.96 63.6939L264.704 64.0656C264.634 63.8793 264.56 63.7254 264.516 63.5595C263.401 59.3987 262.291 55.2349 261.175 51.0745C260.316 47.8763 259.451 44.6815 258.584 41.4871C258.543 41.3374 258.458 41.2068 258.394 41.0682L260.712 37.2723C260.785 37.3939 260.889 37.502 260.927 37.6388C261.57 39.984 262.208 42.332 262.842 44.6815C263.434 46.8755 264.018 49.073 264.617 51.2642C264.657 51.411 264.797 51.5149 264.89 51.6388L264.895 52.1368C264.917 55.9884 264.939 59.8414 264.96 63.6939Z" fill="#57AE47"/>
<path fill-rule="evenodd" clip-rule="evenodd" d="M264.891 51.6378C264.797 51.5139 264.658 51.41 264.618 51.2633C264.018 49.072 263.435 46.8746 262.843 44.6805C262.209 42.331 261.571 39.9835 260.928 37.6379C260.89 37.5011 260.786 37.3929 260.712 37.2714C261.466 36.3526 262.197 35.4009 262.981 34.5245C263.678 33.7458 264.238 32.9108 264.264 31.6803C264.265 31.6294 264.286 31.5784 264.319 31.4354L264.518 32.0578C264.513 32.3728 264.49 32.6878 264.507 33.0009C264.536 33.5456 264.606 34.0875 264.626 34.6322C264.663 35.6458 264.68 36.6614 264.697 37.6765C264.723 39.3101 264.747 40.9438 264.764 42.5779C264.789 45.1885 264.806 47.7991 264.833 50.4097C264.836 50.82 264.87 51.2285 264.891 51.6378Z" fill="#60B24F"/>
<path fill-rule="evenodd" clip-rule="evenodd" d="M263.963 81.0327C264.064 80.406 264.196 79.7841 264.259 79.1517C264.383 77.8893 264.469 76.6202 264.57 75.3544L264.596 75.3497L264.621 75.3549C264.65 76.9438 264.823 78.5074 265.155 80.0433C265.087 80.1539 264.992 80.2525 264.956 80.3774C264.678 81.3544 264.416 82.3389 264.136 83.3159C264.098 83.4493 263.991 83.5532 263.916 83.6705L263.63 82.4476L263.963 81.0327Z" fill="#A9AA88"/>
<path fill-rule="evenodd" clip-rule="evenodd" d="M263.917 83.6709C263.992 83.5537 264.098 83.4498 264.136 83.3164C264.416 82.3394 264.679 81.3553 264.957 80.3779C264.992 80.253 265.087 80.1544 265.155 80.0438L265.635 81.3563C265.54 81.524 265.41 81.6751 265.357 81.8619L264.436 85.226C264.399 85.3608 264.269 85.4561 264.183 85.57L263.917 83.6709Z" fill="#B6B598"/>
<path fill-rule="evenodd" clip-rule="evenodd" d="M264.183 85.5696C264.27 85.4561 264.399 85.3603 264.436 85.2255L265.357 81.8614C265.409 81.6751 265.54 81.5235 265.635 81.3558L266.101 81.85C265.876 82.1264 265.751 82.4457 265.826 82.8493L265.685 83.425C265.62 83.5237 265.527 83.6095 265.496 83.7224C265.175 84.8676 264.868 86.019 264.544 87.1641C264.503 87.3095 264.39 87.4234 264.309 87.5511C264.268 86.8901 264.225 86.2305 264.183 85.5696Z" fill="#C2C1A7"/>
<path fill-rule="evenodd" clip-rule="evenodd" d="M264.31 87.5511C264.39 87.4229 264.503 87.309 264.545 87.1641C264.868 86.0194 265.175 84.868 265.496 83.7224C265.528 83.6099 265.62 83.5237 265.685 83.425L265.49 86.0676C265.438 86.1424 265.363 86.2077 265.338 86.2949C265.118 87.064 264.91 87.8389 264.689 88.6081C264.644 88.7668 264.557 88.9069 264.489 89.0551C264.428 88.9565 264.32 88.8612 264.315 88.7582C264.295 88.3574 264.309 87.9538 264.31 87.5511Z" fill="#CECDB7"/>
<path fill-rule="evenodd" clip-rule="evenodd" d="M264.488 89.0551C264.556 88.9064 264.644 88.7663 264.689 88.6081C264.91 87.8394 265.117 87.0645 265.338 86.2949C265.362 86.2077 265.438 86.1429 265.49 86.0676L265.495 87.8023L265.028 89.291L264.488 89.0551Z" fill="#DBDAC7"/>
<path fill-rule="evenodd" clip-rule="evenodd" d="M265.028 89.2915L265.495 87.8027L265.591 89.5641L265.028 89.2915Z" fill="#EBE9DC"/>
<path fill-rule="evenodd" clip-rule="evenodd" d="M265.826 82.8498C265.751 82.4462 265.875 82.1264 266.101 81.8505L266.23 81.9601L265.826 82.8498Z" fill="#CECDB7"/>
<path fill-rule="evenodd" clip-rule="evenodd" d="M264.621 75.3554L264.596 75.3502L264.57 75.3549L264.63 75.0885L264.621 75.3554Z" fill="#4FAA41"/>
<path d="M269.65 383.924C267.382 383.53 265.424 382.177 264.472 380.344C264.053 379.538 263.875 378.776 263.878 377.805C263.887 375.014 265.898 372.683 269.021 371.843C269.597 371.688 269.976 371.647 270.859 371.645C271.47 371.644 272.145 371.672 272.358 371.708L272.745 371.774L273.221 370.967C274.193 369.319 275.708 368.024 277.667 367.168C279.283 366.462 280.298 366.256 282.174 366.256C283.487 366.256 283.792 366.284 284.64 366.48C288.3 367.326 291.153 369.834 292.051 372.993C292.276 373.785 292.388 375.558 292.257 376.254L292.168 376.73L292.68 376.83C293.965 377.081 295.074 377.864 295.641 378.922C296.201 379.967 296.099 381.32 295.384 382.309C295.019 382.813 294.303 383.374 293.707 383.624C293.401 383.751 293.075 383.891 292.982 383.933C292.775 384.028 270.199 384.019 269.65 383.924ZM293.12 382.758C293.755 382.482 294.384 381.866 294.645 381.262C295.186 380.01 294.464 378.554 293.022 377.994C292.658 377.853 292.386 377.82 291.627 377.827C291.108 377.831 290.684 377.802 290.684 377.763C290.684 377.724 290.78 377.356 290.898 376.947C291.199 375.898 291.196 374.226 290.891 373.204C290.219 370.953 288.475 369.074 286.09 368.033C285.042 367.575 284.045 367.366 282.683 367.317C280.668 367.245 279.261 367.523 277.71 368.297C275.902 369.2 274.344 370.836 273.739 372.466C273.623 372.779 273.482 373.035 273.426 373.035C273.37 373.034 273.042 372.952 272.696 372.853C271.734 372.576 270.094 372.593 269.134 372.889C268.167 373.187 267.472 373.569 266.747 374.2C265.662 375.144 265.059 376.432 265.059 377.805C265.059 379.845 266.346 381.633 268.44 382.502C269.643 383.001 269.227 382.986 281.448 382.97L292.666 382.955L293.12 382.758ZM260.753 378.811C256.694 378.33 253.57 377.441 251.259 376.107C250.306 375.557 249.648 374.942 249.276 374.253L249 373.741L249.025 359.86L249.051 345.98L249.282 345.602C249.865 344.646 251.003 343.83 252.815 343.069C255.106 342.107 257.748 341.505 261.429 341.108C262.946 340.944 268.094 340.973 269.65 341.154C275.379 341.821 279.825 343.455 281.243 345.415C281.801 346.187 281.787 345.907 281.787 355.997V365.262L281.473 365.304C281.3 365.328 280.908 365.37 280.602 365.398C277.447 365.693 274.175 367.596 272.498 370.114L272.154 370.63L270.805 370.685C269.211 370.751 268.399 370.929 267.187 371.479C265.107 372.424 263.62 374.061 263.013 376.075C262.846 376.631 262.796 377.034 262.793 377.868L262.786 378.945L262.251 378.935C261.957 378.929 261.282 378.873 260.75 378.811H260.753ZM269.003 366.017C268.242 365.453 267.583 364.964 267.54 364.931C267.496 364.897 267.655 364.771 267.891 364.65C268.416 364.381 269.092 363.739 269.379 363.235C270.08 362.005 270.065 360.474 269.338 359.257C268.539 357.918 266.868 357.215 264.974 357.423C263.937 357.536 263.287 357.79 262.602 358.349C261.521 359.232 261.146 360.099 261.203 361.586C261.236 362.431 261.27 362.583 261.547 363.096C262.143 364.201 263.39 365.026 264.659 365.157C265.137 365.207 265.179 365.234 266.128 366.125L267.105 367.042H268.746H270.387L269.003 366.017ZM264.862 363.138C264.196 362.843 263.944 362.339 263.944 361.304C263.944 360.631 263.981 360.434 264.171 360.098C264.474 359.56 265.079 359.237 265.672 359.295C266.255 359.353 266.558 359.559 266.867 360.107C267.101 360.523 267.135 360.681 267.132 361.344C267.132 362.162 266.963 362.581 266.492 362.963C266 363.363 265.493 363.417 264.862 363.138ZM258.17 365.097C259.918 364.745 260.868 363.467 260.365 362.143C260.111 361.477 259.575 361.06 258.266 360.513C257.662 360.261 257.121 360.002 257.065 359.939C256.845 359.692 256.845 359.529 257.065 359.304C257.405 358.959 258.181 358.942 259.231 359.258L260.031 359.499L260.004 358.566L259.977 357.633L259.445 357.523C258.64 357.356 256.902 357.364 256.218 357.538C254.846 357.887 254.123 358.669 254.128 359.801C254.135 360.965 254.733 361.517 256.85 362.301C257.745 362.632 257.847 363.252 257.047 363.495C256.677 363.607 256.571 363.605 255.985 363.473C255.627 363.392 255.084 363.213 254.778 363.074L254.222 362.823V363.833V364.843L254.778 364.978C255.084 365.052 255.378 365.126 255.431 365.142C255.652 365.209 257.784 365.174 258.167 365.097H258.17ZM276.855 364.214V363.328H275.307H273.76V360.415V357.503H272.503H271.246V361.302V365.1H274.05H276.855V364.214ZM269.408 349.016C271.93 348.761 273.999 348.299 275.307 347.7C276.167 347.307 276.373 347.165 276.703 346.74C277.724 345.426 275.437 344.105 271.004 343.449C266.838 342.831 261.349 342.971 257.836 343.783C250.587 345.459 253.445 348.538 262.813 349.145C264.35 349.245 267.816 349.177 269.408 349.016Z" fill="#F20B4D"/>
<path d="M288.3 372.6C287.6 371.6 286.4 371 285.1 371C284.2 371 283.3 371.3 282.6 371.9C282.3 372.1 282.1 372.3 281.9 372.6C281.4 373.3 281 374.1 281 375.1C281 376.4 281.6 377.6 282.6 378.3C283.3 378.8 284.1 379.1 285 379.1C285.9 379.1 286.8 378.8 287.5 378.2C287.8 378 288 377.8 288.2 377.5C288.7 376.8 289.1 376 289.1 375C289.1 374.1 288.8 373.3 288.3 372.6Z" fill="#F20B4B"/>
<path d="M409.3 373.6C408.6 372.6 407.4 372 406.1 372C405.2 372 404.3 372.3 403.6 372.9C403.3 373.1 403.1 373.3 402.9 373.6C402.4 374.3 402 375.1 402 376.1C402 377.4 402.6 378.6 403.6 379.3C404.3 379.8 405.1 380.1 406 380.1C406.9 380.1 407.8 379.8 408.5 379.2C408.8 379 409 378.8 409.2 378.5C409.7 377.8 410.1 377 410.1 376C410.1 375.1 409.8 374.3 409.3 373.6Z" fill="#F20B4B"/>
<path d="M491.5 305C501.717 305 510 297.165 510 287.5C510 277.835 501.717 270 491.5 270C481.283 270 473 277.835 473 287.5C473 297.165 481.283 305 491.5 305Z" fill="#19ADE5"/>
<path d="M485.728 280.71H488.947V289.285C488.947 293.135 486.986 294.5 483.878 294.5C483.101 294.5 482.139 294.395 481.51 294.185L481.88 291.7C482.324 291.84 482.916 291.945 483.545 291.945C484.914 291.945 485.765 291.35 485.765 289.285L485.728 280.71Z" fill="#F20B4B"/>
<path d="M491.796 291.14C492.647 291.56 494.016 291.98 495.385 291.98C496.865 291.98 497.642 291.385 497.642 290.475C497.642 289.635 496.976 289.145 495.237 288.585C492.869 287.78 491.278 286.52 491.278 284.525C491.278 282.25 493.35 280.5 496.717 280.5C498.345 280.5 499.529 280.815 500.38 281.2L499.64 283.65C499.085 283.405 498.049 283.02 496.68 283.02C495.274 283.02 494.608 283.65 494.608 284.315C494.608 285.19 495.385 285.575 497.272 286.24C499.788 287.115 500.972 288.375 500.972 290.3C500.972 292.575 499.159 294.5 495.2 294.5C493.572 294.5 491.944 294.08 491.13 293.66L491.796 291.14Z" fill="#F20B4B"/>
<path d="M417 52C428.598 52 438 43.0457 438 32C438 20.9543 428.598 12 417 12C405.402 12 396 20.9543 396 32C396 43.0457 405.402 52 417 52Z" fill="#F0652A"/>
<path d="M407.004 22L408.81 41.4L416.958 43.6L425.148 41.4L426.996 22H407.004ZM423.048 28.32H413.472L413.682 30.76H422.796L422.082 38.12L417 39.44H416.958L411.834 38.08L411.54 34.36H414.018L414.186 36.24L416.958 36.96L419.73 36.24L420.024 33.16H411.414L410.742 25.96H423.258L423.048 28.32Z" fill="white"/>
<path d="M565.625 63.1989C567.265 63.1989 568.594 61.8348 568.594 60.1521C568.594 58.4693 567.265 57.1052 565.625 57.1052C563.985 57.1052 562.656 58.4693 562.656 60.1521C562.656 61.8348 563.985 63.1989 565.625 63.1989Z" fill="#19ADE5"/>
<path d="M565.625 67.138C562.057 67.2265 558.497 66.7329 555.08 65.6755C553.501 65.1619 552.029 64.3528 550.737 63.2891C550.244 62.9258 549.834 62.4573 549.534 61.9158C549.234 61.3743 549.052 60.7726 549 60.1521C549 58.1375 551.156 56.1631 554.769 54.8712C558.278 53.7265 561.944 53.1717 565.625 53.2284C569.257 53.1763 572.874 53.721 576.339 54.842C577.859 55.3394 579.281 56.1094 580.54 57.1162C581.024 57.4626 581.429 57.9141 581.724 58.4388C582.02 58.9634 582.199 59.5483 582.25 60.1521C582.25 62.2459 579.839 64.3677 575.956 65.6864C572.605 66.7094 569.121 67.1989 565.625 67.138ZM565.625 54.686C562.103 54.6377 558.596 55.1651 555.236 56.2484C551.911 57.4391 550.42 59.0674 550.42 60.1484C550.42 61.2794 552.022 63.0576 555.54 64.2922C558.809 65.2987 562.213 65.7672 565.625 65.6803C568.969 65.7417 572.303 65.2773 575.511 64.3031C579.163 63.0612 580.825 61.2806 580.825 60.1521C580.765 59.7648 580.628 59.3945 580.421 59.0645C580.215 58.7345 579.944 58.4521 579.626 58.235C578.5 57.3418 577.229 56.6594 575.872 56.2192C572.558 55.1513 569.098 54.6337 565.625 54.686Z" fill="#19ADE5"/>
<path d="M558.88 75.3487C558.326 75.3617 557.779 75.2238 557.294 74.9489C555.593 73.9422 555.004 71.0392 555.718 67.1818C556.505 63.4903 557.868 59.9538 559.755 56.7091C561.525 53.4539 563.792 50.5104 566.468 47.9902C567.648 46.8868 569.008 46.0067 570.487 45.3906C571.021 45.1333 571.605 45 572.195 45C572.786 45 573.369 45.1333 573.904 45.3906C575.672 46.4363 576.258 49.6391 575.433 53.75C574.621 57.2412 573.293 60.584 571.495 63.6621C569.787 66.8788 567.592 69.7967 564.992 72.3067C563.77 73.4532 562.351 74.3578 560.809 74.9745C560.191 75.2098 559.539 75.3363 558.88 75.3487ZM560.985 57.433C559.185 60.54 557.879 63.9213 557.114 67.4499C556.458 71.0026 557.088 73.1391 558.005 73.6826C558.955 74.2469 561.261 73.7119 564.061 71.2013C566.543 68.7966 568.638 66.0035 570.268 62.9259C571.991 59.9833 573.265 56.7873 574.046 53.4489C574.822 49.5794 574.151 47.2102 573.199 46.6471C572.842 46.5067 572.46 46.4439 572.079 46.4626C571.697 46.4812 571.323 46.581 570.981 46.7556C569.664 47.313 568.454 48.1043 567.406 49.0931C564.849 51.5072 562.684 54.3252 560.994 57.4404L560.985 57.433Z" fill="#19ADE5"/>
<path d="M572.366 75.3645C570.757 75.3645 568.714 74.3651 566.586 72.487C563.862 69.9438 561.558 66.9654 559.761 63.6669C557.898 60.4669 556.545 56.9815 555.755 53.3429C555.412 51.7421 555.348 50.0915 555.567 48.4679C555.617 47.8656 555.796 47.282 556.09 46.7583C556.385 46.2346 556.787 45.7835 557.27 45.4369C559.036 44.3875 562.032 45.4661 565.089 48.2522C567.631 50.7167 569.79 53.5668 571.49 56.703C573.352 59.8283 574.719 63.2374 575.539 66.8028C575.897 68.4624 575.952 70.1755 575.702 71.8557C575.643 72.4753 575.453 73.0744 575.147 73.6119C574.841 74.1494 574.425 74.6125 573.928 74.9696C573.451 75.2411 572.912 75.3774 572.366 75.3645ZM560.99 62.9333C562.714 66.0855 564.915 68.936 567.512 71.378C570.183 73.7363 572.301 74.2433 573.212 73.6936C574.162 73.1269 574.863 70.8137 574.141 67.0709C573.35 63.6669 572.039 60.4128 570.256 57.4294C568.634 54.4277 566.574 51.6986 564.147 49.3369C561.268 46.7141 558.933 46.1279 557.982 46.6934C557.686 46.9407 557.442 47.2483 557.268 47.597C557.093 47.9456 556.991 48.3277 556.967 48.719C556.778 50.167 556.84 51.6378 557.149 53.0638C557.909 56.5435 559.206 59.8762 560.991 62.9357L560.99 62.9333Z" fill="#19ADE5"/>
<path d="M488.5 154C498.165 154 506 146.389 506 137C506 127.611 498.165 120 488.5 120C478.835 120 471 127.611 471 137C471 146.389 478.835 154 488.5 154Z" fill="#F20B4B"/>
<path d="M497.6 129.52L494.8 143.12L486.365 145.84L479.05 143.12L479.785 139.482H482.9L482.585 140.978L487.03 142.61L492.14 140.978L492.84 137.51H480.17L480.765 134.484H493.47L493.855 132.546H481.185L481.815 129.52H497.6Z" fill="#19ADE5"/>
<path d="M416 236C430.359 236 442 224.359 442 210C442 195.641 430.359 184 416 184C401.641 184 390 195.641 390 210C390 224.359 401.641 236 416 236Z" fill="#F20B4B"/>
<path d="M422.448 197.52L411.996 207.92L405.08 202.72L402.48 203.604V216.604L405.08 218.32L411.996 213.12L422.292 223.52L428.48 220.92V200.068L422.448 197.52ZM405.08 214.004V207.036L409.396 210.52L405.08 214.004ZM422.396 215.72L415.48 210.52L422.396 205.32V215.72Z" fill="white"/>
</g>
<path d="M535 424H537V420.9C536.4 420.5 535.7 420.2 535 420V424Z" fill="#F20B4B"/>
<path d="M496 490.1V486C495.3 486.2 494.6 486.6 494 486.9V490H496V490.1Z" fill="#F20B4B"/>
<defs>
<clipPath id="clip0_0_1">
<rect width="420" height="420" fill="white" transform="translate(205)"/>
</clipPath>
<clipPath id="clip1_0_1">
<rect width="31" height="35" fill="white" transform="translate(223 193)"/>
</clipPath>
</defs>
</svg>
